<mxfile host="65bd71144e">
    <diagram id="a5WA9wOWmJLzUxva-qxt" name="use-case-basic.png">
        <mxGraphModel dx="551" dy="247" grid="1" gridSize="10" guides="1" tooltips="1" connect="1" arrows="1" fold="1" page="1" pageScale="1" pageWidth="827" pageHeight="1169" math="0" shadow="0">
            <root>
                <mxCell id="0"/>
                <mxCell id="1" parent="0"/>
                <mxCell id="3iCqusJ1jWp0ffCeWWAb-13" value="" style="group;shadow=0;glass=0;rounded=0;" parent="1" vertex="1" connectable="0">
                    <mxGeometry x="350" y="177.5" width="340" height="340" as="geometry"/>
                </mxCell>
                <mxCell id="3iCqusJ1jWp0ffCeWWAb-23" value="" style="shape=flexArrow;endArrow=classic;html=1;rounded=0;strokeWidth=2;" parent="3iCqusJ1jWp0ffCeWWAb-13" edge="1">
                    <mxGeometry width="50" height="50" relative="1" as="geometry">
                        <mxPoint x="280" y="59.5" as="sourcePoint"/>
                        <mxPoint x="440" y="59.5" as="targetPoint"/>
                    </mxGeometry>
                </mxCell>
                <mxCell id="3iCqusJ1jWp0ffCeWWAb-46" value="&lt;b&gt;Valid identification?&lt;/b&gt;" style="edgeLabel;html=1;align=center;verticalAlign=middle;resizable=0;points=[];" parent="3iCqusJ1jWp0ffCeWWAb-23" vertex="1" connectable="0">
                    <mxGeometry x="0.2" relative="1" as="geometry">
                        <mxPoint x="-26" y="13" as="offset"/>
                    </mxGeometry>
                </mxCell>
                <mxCell id="3iCqusJ1jWp0ffCeWWAb-24" value="" style="group" parent="3iCqusJ1jWp0ffCeWWAb-13" vertex="1" connectable="0">
                    <mxGeometry width="340" height="340" as="geometry"/>
                </mxCell>
                <mxCell id="3iCqusJ1jWp0ffCeWWAb-11" value="" style="shape=image;html=1;verticalAlign=top;verticalLabelPosition=bottom;labelBackgroundColor=#ffffff;imageAspect=0;aspect=fixed;image=https://cdn0.iconfinder.com/data/icons/ie_Financial_set/128/10.png;fillColor=#666666;gradientColor=none;imageBackground=none;" parent="3iCqusJ1jWp0ffCeWWAb-24" vertex="1">
                    <mxGeometry width="340" height="340" as="geometry"/>
                </mxCell>
                <mxCell id="3iCqusJ1jWp0ffCeWWAb-12" value="" style="outlineConnect=0;dashed=0;verticalLabelPosition=bottom;verticalAlign=top;align=center;html=1;shape=mxgraph.aws3.door_lock;fillColor=#5294CF;gradientColor=none;" parent="3iCqusJ1jWp0ffCeWWAb-24" vertex="1">
                    <mxGeometry x="80" y="132.5" width="66" height="55" as="geometry"/>
                </mxCell>
                <mxCell id="3iCqusJ1jWp0ffCeWWAb-14" value="" style="group;shadow=0;" parent="1" vertex="1" connectable="0">
                    <mxGeometry x="120" y="160" width="170" height="355" as="geometry"/>
                </mxCell>
                <mxCell id="3iCqusJ1jWp0ffCeWWAb-10" value="" style="verticalLabelPosition=bottom;sketch=0;html=1;fillColor=#A153A0;verticalAlign=top;align=center;pointerEvents=1;shape=mxgraph.cisco_safe.design.actor_2;" parent="3iCqusJ1jWp0ffCeWWAb-14" vertex="1">
                    <mxGeometry width="139" height="355" as="geometry"/>
                </mxCell>
                <mxCell id="3iCqusJ1jWp0ffCeWWAb-7" value="" style="shape=image;html=1;verticalAlign=top;verticalLabelPosition=bottom;labelBackgroundColor=#ffffff;imageAspect=0;aspect=fixed;image=https://cdn1.iconfinder.com/data/icons/smartphone-signal-5g-trading/64/Smartphone_NFC-128.png;fillColor=#666666;gradientColor=none;" parent="3iCqusJ1jWp0ffCeWWAb-14" vertex="1">
                    <mxGeometry x="110" y="165" width="60" height="60" as="geometry"/>
                </mxCell>
                <mxCell id="3iCqusJ1jWp0ffCeWWAb-16" value="" style="shape=flexArrow;endArrow=classic;html=1;rounded=0;strokeWidth=2;" parent="1" edge="1">
                    <mxGeometry width="50" height="50" relative="1" as="geometry">
                        <mxPoint x="300" y="337" as="sourcePoint"/>
                        <mxPoint x="420" y="337" as="targetPoint"/>
                    </mxGeometry>
                </mxCell>
                <mxCell id="3iCqusJ1jWp0ffCeWWAb-51" value="&lt;b&gt;Delivery identification&lt;/b&gt;" style="edgeLabel;html=1;align=center;verticalAlign=middle;resizable=0;points=[];" parent="3iCqusJ1jWp0ffCeWWAb-16" vertex="1" connectable="0">
                    <mxGeometry x="-0.2667" y="2" relative="1" as="geometry">
                        <mxPoint x="10" y="-25" as="offset"/>
                    </mxGeometry>
                </mxCell>
                <mxCell id="3iCqusJ1jWp0ffCeWWAb-25" value="Hotel Company" style="fontColor=#0066CC;verticalAlign=top;verticalLabelPosition=bottom;labelPosition=center;align=center;html=1;outlineConnect=0;fillColor=#CCCCCC;strokeColor=#6881B3;gradientColor=none;gradientDirection=north;strokeWidth=2;shape=mxgraph.networks.pc;shadow=1;" parent="1" vertex="1">
                    <mxGeometry x="810" y="177.5" width="127" height="100" as="geometry"/>
                </mxCell>
                <mxCell id="3iCqusJ1jWp0ffCeWWAb-30" value="Cleaning Company" style="fontColor=#0066CC;verticalAlign=top;verticalLabelPosition=bottom;labelPosition=center;align=center;html=1;outlineConnect=0;fillColor=#CCCCCC;strokeColor=#6881B3;gradientColor=none;gradientDirection=north;strokeWidth=2;shape=mxgraph.networks.pc;shadow=1;" parent="1" vertex="1">
                    <mxGeometry x="810" y="360" width="127" height="100" as="geometry"/>
                </mxCell>
                <mxCell id="3iCqusJ1jWp0ffCeWWAb-34" value="ERP" style="strokeWidth=2;html=1;shape=mxgraph.lean_mapping.mrp_erp;whiteSpace=wrap;fillColor=#9C9130;gradientColor=none;" parent="1" vertex="1">
                    <mxGeometry x="897" y="197.5" width="30" height="40" as="geometry"/>
                </mxCell>
                <mxCell id="3iCqusJ1jWp0ffCeWWAb-39" value="" style="shape=flexArrow;endArrow=classic;html=1;rounded=0;strokeWidth=2;" parent="1" edge="1">
                    <mxGeometry width="50" height="50" relative="1" as="geometry">
                        <mxPoint x="770" y="208.5" as="sourcePoint"/>
                        <mxPoint x="630" y="208.5" as="targetPoint"/>
                    </mxGeometry>
                </mxCell>
                <mxCell id="3iCqusJ1jWp0ffCeWWAb-43" value="&lt;b&gt;Yes / No&lt;br&gt;&lt;/b&gt;" style="edgeLabel;html=1;align=center;verticalAlign=middle;resizable=0;points=[];" parent="3iCqusJ1jWp0ffCeWWAb-39" vertex="1" connectable="0">
                    <mxGeometry x="-0.1857" y="-1" relative="1" as="geometry">
                        <mxPoint x="-13" y="-17" as="offset"/>
                    </mxGeometry>
                </mxCell>
                <mxCell id="3iCqusJ1jWp0ffCeWWAb-44" value="" style="shape=flexArrow;endArrow=classic;html=1;rounded=0;strokeWidth=2;" parent="1" edge="1">
                    <mxGeometry width="50" height="50" relative="1" as="geometry">
                        <mxPoint x="770" y="389.5" as="sourcePoint"/>
                        <mxPoint x="630" y="389.5" as="targetPoint"/>
                    </mxGeometry>
                </mxCell>
                <mxCell id="3iCqusJ1jWp0ffCeWWAb-45" value="&lt;b&gt;Yes&amp;nbsp;/ No&lt;br&gt;&lt;/b&gt;" style="edgeLabel;html=1;align=center;verticalAlign=middle;resizable=0;points=[];" parent="3iCqusJ1jWp0ffCeWWAb-44" vertex="1" connectable="0">
                    <mxGeometry x="-0.1857" y="-1" relative="1" as="geometry">
                        <mxPoint x="-13" y="-17" as="offset"/>
                    </mxGeometry>
                </mxCell>
                <mxCell id="3iCqusJ1jWp0ffCeWWAb-47" value="" style="shape=flexArrow;endArrow=classic;html=1;rounded=0;strokeWidth=2;" parent="1" edge="1">
                    <mxGeometry width="50" height="50" relative="1" as="geometry">
                        <mxPoint x="630" y="417" as="sourcePoint"/>
                        <mxPoint x="790" y="417" as="targetPoint"/>
                    </mxGeometry>
                </mxCell>
                <mxCell id="3iCqusJ1jWp0ffCeWWAb-48" value="&lt;b&gt;Valid identification?&lt;/b&gt;" style="edgeLabel;html=1;align=center;verticalAlign=middle;resizable=0;points=[];" parent="3iCqusJ1jWp0ffCeWWAb-47" vertex="1" connectable="0">
                    <mxGeometry x="0.2" relative="1" as="geometry">
                        <mxPoint x="-25" y="13" as="offset"/>
                    </mxGeometry>
                </mxCell>
                <mxCell id="XQt1d33xoLSYvb4s_PiA-5" value="&lt;p style=&quot;line-height: 120%;&quot;&gt;&lt;b style=&quot;font-size: 20px;&quot;&gt;1&lt;/b&gt;&lt;/p&gt;" style="ellipse;whiteSpace=wrap;html=1;aspect=fixed;rounded=0;shadow=0;glass=0;sketch=0;fillColor=#ffe6cc;strokeColor=#d79b00;" parent="1" vertex="1">
                    <mxGeometry x="170" y="100" width="47" height="47" as="geometry"/>
                </mxCell>
                <mxCell id="XQt1d33xoLSYvb4s_PiA-6" value="&lt;font style=&quot;font-size: 20px;&quot;&gt;&lt;b&gt;2&lt;/b&gt;&lt;/font&gt;" style="ellipse;whiteSpace=wrap;html=1;aspect=fixed;rounded=0;shadow=0;glass=0;sketch=0;fillColor=#ffe6cc;strokeColor=#d79b00;" parent="1" vertex="1">
                    <mxGeometry x="490" y="100" width="47" height="47" as="geometry"/>
                </mxCell>
                <mxCell id="XQt1d33xoLSYvb4s_PiA-7" value="&lt;font size=&quot;1&quot;&gt;&lt;b style=&quot;font-size: 20px;&quot;&gt;3&lt;/b&gt;&lt;/font&gt;" style="ellipse;whiteSpace=wrap;html=1;aspect=fixed;rounded=0;shadow=0;glass=0;sketch=0;fillColor=#ffe6cc;strokeColor=#d79b00;" parent="1" vertex="1">
                    <mxGeometry x="850" y="100" width="47" height="47" as="geometry"/>
                </mxCell>
                <mxCell id="XQt1d33xoLSYvb4s_PiA-10" value="&lt;font color=&quot;#0066cc&quot;&gt;&lt;span style=&quot;font-size: 12px&quot;&gt;Security Company&lt;/span&gt;&lt;/font&gt;" style="sketch=0;points=[[0.015,0.015,0],[0.985,0.015,0],[0.985,0.985,0],[0.015,0.985,0],[0.25,0,0],[0.5,0,0],[0.75,0,0],[1,0.25,0],[1,0.5,0],[1,0.75,0],[0.75,1,0],[0.5,1,0],[0.25,1,0],[0,0.75,0],[0,0.5,0],[0,0.25,0]];verticalLabelPosition=bottom;html=1;verticalAlign=top;aspect=fixed;align=center;pointerEvents=1;shape=mxgraph.cisco19.rect;prIcon=shield;fillColor=#FAFAFA;strokeColor=#005073;rounded=0;shadow=0;glass=0;fontSize=20;" parent="1" vertex="1">
                    <mxGeometry x="1020" y="270" width="153.6" height="120" as="geometry"/>
                </mxCell>
                <mxCell id="XQt1d33xoLSYvb4s_PiA-13" value="" style="shape=flexArrow;endArrow=classic;html=1;rounded=0;strokeWidth=2;fontSize=20;" parent="1" edge="1">
                    <mxGeometry width="50" height="50" relative="1" as="geometry">
                        <mxPoint x="640" y="329.5" as="sourcePoint"/>
                        <mxPoint x="1020" y="329.5" as="targetPoint"/>
                    </mxGeometry>
                </mxCell>
                <mxCell id="XQt1d33xoLSYvb4s_PiA-19" value="&lt;font size=&quot;1&quot;&gt;&lt;b style=&quot;font-size: 15px;&quot;&gt;Informa c&lt;/b&gt;&lt;/font&gt;&lt;font style=&quot;font-size: 14px;&quot;&gt;&lt;b&gt;&lt;font style=&quot;font-size: 14px;&quot;&gt;ambios de estado&lt;br&gt;&lt;/font&gt;&lt;/b&gt;&lt;/font&gt;" style="edgeLabel;html=1;align=center;verticalAlign=middle;resizable=0;points=[];fontSize=20;" parent="XQt1d33xoLSYvb4s_PiA-13" vertex="1" connectable="0">
                    <mxGeometry x="-0.7211" y="3" relative="1" as="geometry">
                        <mxPoint x="38" y="-18" as="offset"/>
                    </mxGeometry>
                </mxCell>
                <mxCell id="XQt1d33xoLSYvb4s_PiA-14" value="" style="shape=flexArrow;endArrow=classic;html=1;rounded=0;strokeWidth=2;fontSize=20;" parent="1" edge="1">
                    <mxGeometry width="50" height="50" relative="1" as="geometry">
                        <mxPoint x="879" y="326" as="sourcePoint"/>
                        <mxPoint x="879" y="296" as="targetPoint"/>
                    </mxGeometry>
                </mxCell>
                <mxCell id="XQt1d33xoLSYvb4s_PiA-17" value="" style="shape=flexArrow;endArrow=classic;html=1;rounded=0;strokeWidth=2;fontSize=20;" parent="1" edge="1">
                    <mxGeometry width="50" height="50" relative="1" as="geometry">
                        <mxPoint x="879" y="336" as="sourcePoint"/>
                        <mxPoint x="879" y="366" as="targetPoint"/>
                    </mxGeometry>
                </mxCell>
            </root>
        </mxGraphModel>
    </diagram>
</mxfile>